<svg xmlns="http://www.w3.org/2000/svg" version="1.1" xmlns:xlink="http://www.w3.org/1999/xlink" xmlns:svgjs="http://svgjs.dev/svgjs" width="1000" height="1000" viewBox="0 0 1000 1000"><rect width="1000" height="1000" fill="#ffffff"></rect><g transform="matrix(0.7,0,0,0.7,149.57575757575756,282.1265587044535)"><svg viewBox="0 0 396 247" data-background-color="#e6b17e" preserveAspectRatio="xMidYMid meet" height="623" width="1000" xmlns="http://www.w3.org/2000/svg" xmlns:xlink="http://www.w3.org/1999/xlink"><g id="tight-bounds" transform="matrix(1,0,0,1,0.2400000000000091,-0.09999999999999432)"><svg viewBox="0 0 395.52 247.2" height="247.2" width="395.52"><g><svg></svg></g><g><svg viewBox="0 0 395.52 247.2" height="247.2" width="395.52"><g><path xmlns="http://www.w3.org/2000/svg" d="M55.039 247.2l26.403-45.732h2.897l-24.876 43.086h276.593l-24.875-43.086 2.897 0 26.403 45.732zM197.76 0l26.403 45.732-2.896 0-23.507-40.715-23.507 40.715-2.896 0z" fill="#000000" fill-rule="nonzero" stroke="none" stroke-width="1" stroke-linecap="butt" stroke-linejoin="miter" stroke-miterlimit="10" stroke-dasharray="" stroke-dashoffset="0" font-family="none" font-weight="none" font-size="none" text-anchor="none" style="mix-blend-mode: normal" data-fill-palette-color="tertiary"></path></g><g transform="matrix(1,0,0,1,92.99853065226064,67.97999999999999)"><svg viewBox="0 0 209.5229386954787 111.24" height="111.24" width="209.5229386954787"><g><svg viewBox="0 0 209.5229386954787 111.24" height="111.24" width="209.5229386954787"><g><svg viewBox="0 0 395.52 209.9896320371218" height="111.24" width="209.5229386954787"><g transform="matrix(1,0,0,1,0,129.78201696516751)"><svg viewBox="0 0 395.52 80.2076150719543" height="80.2076150719543" width="395.52"><g><svg viewBox="0 0 395.52 80.2076150719543" height="80.2076150719543" width="395.52"><g><svg viewBox="0 0 395.52 80.2076150719543" height="80.2076150719543" width="395.52"><g transform="matrix(1,0,0,1,0,0)"><svg width="395.52" viewBox="-0.3400000035762787 -36.040000915527344 222.22000122070312 45.06999969482422" height="80.2076150719543" data-palette-color="#000000"><path d="M8.96 0L-0.34-25.93 9.96-25.93 14.18-12.43 17.19-21.78 21.07-9.84 17.99 0.02 17.97 0 8.96 0ZM26.07 0L17.33-25.93 27.51-25.93 35.86 0 26.07 0ZM45.41-25.93L36.94-1.61 32.4-15.58 35.3-25.93 45.41-25.93ZM75.24 0L64.69 0 64.69-19.46 49.34-19.46 49.34-22.68 52.59-25.93 68.77-25.93 75.24-19.46 75.24 0ZM51.51-15.09L62.99-15.09 62.99-10.6 57.42-10.6 57.42-6.05 62.99-6.05 62.99-3.2 59.76 0 51.51 0 47.17-4.27 47.17-10.77 51.51-15.09ZM107.71-25.93L94.55 9.03 84.2 9.03 97.33-25.93 107.71-25.93ZM86.79-2.17L77.22-25.93 87.98-25.93 91.62-15.38 86.79-2.17ZM138.81-19.46L138.81-6.47 132.34 0 125.11 0 125.11-6.05 127.8-6.05 127.8-19.46 125.11-19.46 125.11-25.93 132.34-25.93 138.81-19.46ZM120.6-19.46L120.6-6.05 123.41-6.05 123.41 0 116.15 0 109.68-6.47 109.68-19.46 116.15-25.93 123.41-25.93 123.41-19.46 120.6-19.46ZM154.56 0L143.67 0 143.67-25.93 154.56-25.93 154.56 0ZM160.95 0L160.95-19.46 156.31-19.46 156.31-22.29 159.93-25.93 165.93-25.93 171.77-20.09 171.77 0 160.95 0ZM176.79 0L176.79-25.93 187.61-25.93 187.61 0 176.79 0ZM176.79-29.15L176.79-36.04 187.61-36.04 187.61-29.15 176.79-29.15ZM203.5-35.82L203.5 0 192.71 0 192.71-35.82 203.5-35.82ZM221.32-25.9L205.19-3.66 205.19-18.46 210.17-25.88 221.32-25.9ZM214.76-13.82L221.88 0 210.17 0 208.38-5.22 214.76-13.82Z" opacity="1" transform="matrix(1,0,0,1,0,0)" fill="#000000" class="undefined-text-0" data-fill-palette-color="primary" id="text-0"></path></svg></g></svg></g></svg></g></svg></g><g transform="matrix(1,0,0,1,128.84824622615116,0)"><svg viewBox="0 0 137.8235075476977 110.84692402944084" height="110.84692402944084" width="137.8235075476977"><g><svg xmlns="http://www.w3.org/2000/svg" xmlns:xlink="http://www.w3.org/1999/xlink" version="1.1" x="0" y="0" viewBox="0 9.78600025177002 100.0003433227539 80.42699432373047" enable-background="new 0 0 100 100" xml:space="preserve" width="137.8235075476977" height="110.84692402944084" class="icon-icon-0" data-fill-palette-color="accent" id="icon-0"><path d="M49.942 52.994c13.552-0.488 27.103-0.977 40.653-1.465-2.527-4.177-3.159-7.831-7.989-8.461-7.229-0.94-14.458-1.883-21.688-2.826-14.023-1.827-28.05-3.654-42.075-5.48C20.101 36.792 39.724 53.361 49.942 52.994z" fill="#000000" data-fill-palette-color="accent"></path><path d="M0 9.786c4.391 7.257 26.615 23.072 32.953 23.886 17.33 2.231 34.657 4.46 51.986 6.688-3.393-5.607-4.18-9.35-10.312-10.959-8.904-2.341-17.812-4.683-26.717-7.023C31.94 18.182 15.97 13.984 0 9.786z" fill="#000000" data-fill-palette-color="accent"></path><path d="M63.108 66.207c10.413-2.219 20.826-4.439 31.241-6.66-2.028-3.346-2.034-5.359-5.827-5.189-6.158 0.273-12.314 0.549-18.471 0.822-11.343 0.506-22.686 1.014-34.028 1.518C37.298 58.064 54.94 67.947 63.108 66.207z" fill="#000000" data-fill-palette-color="accent"></path><path d="M87.682 90.213c5.725-3.719 7.262-7.721 10.519-13.807 3.651-6.824 1.257-7.844-2.821-14.596-0.417-0.688-5.842 0.232-6.453 0.904-0.745 0.818-0.248 5.455-0.294 6.496C88.315 76.211 87.998 83.213 87.682 90.213z" fill="#000000" data-fill-palette-color="accent"></path><path d="M86.35 63.447c-3.795 0.809-8.604 0.191-9.572 4.229-1.373 5.736-2.746 11.475-4.12 17.211C81.904 82.678 86.028 71.582 86.35 63.447z" fill="#000000" data-fill-palette-color="accent"></path><path d="M74.666 66.121c-9.148 1.953-8.956 4.611-12.879 13.18C68.007 78.711 73.811 71.941 74.666 66.121z" fill="#000000" data-fill-palette-color="accent"></path></svg></g></svg></g><g></g></svg></g></svg></g></svg></g></svg></g><defs></defs></svg><rect width="395.52" height="247.2" fill="none" stroke="none" visibility="hidden"></rect></g></svg></g></svg>